<?xml version="1.0" encoding="utf-8"?>
<!-- Generator: Adobe Illustrator 25.2.3, SVG Export Plug-In . SVG Version: 6.00 Build 0)  -->
<svg version="1.1" id="Layer_1" xmlns="http://www.w3.org/2000/svg" xmlns:xlink="http://www.w3.org/1999/xlink" x="0px" y="0px"
	 viewBox="0 0 512 512" style="enable-background:new 0 0 512 512;" xml:space="preserve">
<style type="text/css">
	.st0{fill:#155674;}
	.st1{fill:#16C79A;}
	.st2{fill:#008698;}
</style>
<path class="st0" d="M354.1,349.7c-11.2,4-22.8,7.4-34.8,10c-11.9,2.6-24,4.6-36.5,5.8c-8,0.8-16.1,1.3-24.3,1.4c-0.8,0-1.6,0-2.4,0
	c-0.4,0-0.8,0-1.2,0h-2.2c-7.4,0-14.8-0.3-22.1-0.8c-12.5-0.9-24.8-2.5-36.8-4.9c-12-2.4-23.7-5.4-35.1-9.1l-11,34.6
	c9.8,7.5,20.5,13.9,31.8,19.2c11,5.1,22.5,9.2,34.6,12c13.1,3.1,26.7,4.7,40.7,4.7c15.3,0,30.1-1.9,44.3-5.6
	c12-3.1,23.5-7.4,34.3-12.7c11.2-5.6,21.8-12.3,31.5-20L354.1,349.7z"/>
<rect x="96.2" y="-44.2" class="st1" width="41.7" height="41.7"/>
<rect x="137.8" y="-44.2" class="st2" width="41.7" height="41.7"/>
<polygon class="st2" points="391.8,468.5 353.5,466.9 314.5,465.2 257.7,286 256.9,283.7 257,283.5 258.7,278 276,223.7 
	294.7,164.6 276,104.3 263.1,62.8 295.4,164.5 354.1,349.7 365.2,384.5 "/>
<polygon class="st2" points="256.9,43.2 256.9,43.4 250.8,62.8 "/>
<polygon class="st1" points="263.1,62.8 256.9,43.4 257,43.2 "/>
<polygon class="st1" points="294.7,164.6 276,223.7 258.7,278 257,283.5 256.9,283.7 256.2,286 199.3,465.2 160.3,466.9 122,468.5 
	147.9,386.9 158.9,352.3 218.5,164.5 250.8,62.8 256.9,43.4 263.1,62.8 276,104.3 "/>
</svg>
